# xmcd CD database file
#
# Track frame offsets:
#	150
#	16205
#	35281
#	57069
#	73142
#	94807
#	109137
#	121391
#
# Disc length: 2061 seconds
#
# Revision: 0
# Processed by: cddbd v1.5.1PL0 Copyright (c) Steve Scherf et al.
# Submitted via: CDex 1.51
#
DISCID=64080b08
DTITLE=Frank Toller and The Busmills papas - Live sur l'Erdre
DYEAR=2002
DGENRE=Blues
TTITLE0=Kansas city
TTITLE1=Rambling with that woman
TTITLE2=Sweet home Chicago
TTITLE3=Mojo Working
TTITLE4=Hoochie Coochie man
TTITLE5=Roll'en pete
TTITLE6=I'm ready
TTITLE7=Toute la musique
EXTD=YEAR: 2002
EXTT0=
EXTT1=
EXTT2=
EXTT3=
EXTT4=
EXTT5=
EXTT6=
EXTT7=
PLAYORDER=
